<svg id="Layer_1" enable-background="new 0 0 100 100" height="512" viewBox="0 0 100 100" width="512" xmlns="http://www.w3.org/2000/svg"><g id="_x32_1.Vimeo"><path id="Icon_79_" d="m86.8 19.7c-1.9-2.1-4.7-3.2-8.3-3.3-10.2-.3-17.4 5.1-21.4 16.1-.2.6-.1 1.2.3 1.7.4.4 1 .6 1.6.5 1.2-.3 2.3-.5 3.4-.5 1.5 0 3.4.3 4.4 1.6.8 1 .9 2.5.3 4.4-.5 1.6-2.9 6-5.8 10.7-3.6 5.7-5.6 8.2-6.2 8.2-1.9 0-8.8-30.4-9-31-2-7-3-10.5-9.4-10.5-4.9 0-15.8 8.9-24.7 16.7-.6.5-1 .9-1.4 1.2-.9.7-1 2-.3 2.9l1.7 2.1c.7.9 2 1.1 2.9.4l.1-.1c2.9-2.1 5.6-4 7.7-4.1 2.2-.1 4.2 3.4 6.5 11.7 4.4 16.2 11.1 35.4 18 35.4 7.2 0 15.8-6.1 26.9-20.5 10-13.1 15.4-23.4 15.8-30.9.4-5.9-.7-10-3.1-12.7z"/></g></svg>