<svg id="Layer_1" enable-background="new 0 0 100 100" height="512" viewBox="0 0 100 100" width="512" xmlns="http://www.w3.org/2000/svg"><g id="_x32_0.Dribbble"><path d="m62 53.6c3.9 9.9 6.8 20.1 8.7 30.6 2.7-1.6 5.2-3.6 7.5-5.9 6-6 9.8-13.5 11.2-21.6-5.9-2.4-12.3-3.8-19-3.8-2.8 0-5.6.2-8.4.7z"/><path d="m78.3 21.8c0-.1 0-.1 0 0-7.6-7.6-17.6-11.8-28.3-11.8-4.2 0-8.3.6-12.1 1.9 6.2 7.8 11.7 16.1 16.3 24.8 8.8-3.7 16.9-8.8 24.1-14.9z"/><path d="m81.5 25.3c-7.6 6.5-16 11.7-25.1 15.6 1.3 2.7 2.6 5.5 3.8 8.3 3.4-.6 6.8-1 10.3-1 6.7 0 13.3 1.2 19.5 3.6 0-.6 0-1.2 0-1.8 0-9.1-3-17.7-8.5-24.7z"/><path d="m25.4 81.5c7 5.5 15.6 8.5 24.6 8.5 5.7 0 11.3-1.2 16.4-3.5-1.9-11-5-21.7-9-31.9-14.2 3.9-25.9 13.9-32 26.9z"/><path d="m49.2 52.5c2.1-.9 4.2-1.6 6.3-2.2-1.1-2.6-2.3-5.1-3.6-7.6-10.8 4-22.2 6-33.8 6-2.7 0-5.4-.1-8.1-.3v1.6c0 10.7 4.2 20.7 11.7 28.3 2.6-5.2 6-9.9 10.2-14.1 5-5 10.9-9 17.3-11.7z"/><path d="m49.8 38.5c-4.8-8.8-10.3-17.1-16.6-24.8-4.2 2-8.1 4.7-11.5 8-6.1 6.1-9.9 13.7-11.2 22 2.5.2 5.1.3 7.6.3 11.1 0 21.8-1.9 31.7-5.5z"/></g></svg>