<svg id="Layer_1" enable-background="new 0 0 100 100" height="512" viewBox="0 0 100 100" width="512" xmlns="http://www.w3.org/2000/svg"><g id="_x31_9.Tumblr"><path id="Icon_6_" d="m34.3 42.7c-3 0-6 0-8.9 0 0-.4 0-7.2 0-10.4 0-.6.2-1 .8-1.2 10.4-3 15.3-18.4 15.3-20.1 0-.7.4-1 1.1-1h9.5c.7 0 .9.3.9 1v19.2h18.9v12.5c-6.3 0-12.4 0-18.6 0 0 .3-.2 27 0 28.3.3 2 1.5 3.4 3.2 4.4 3 1.8 6.2 1.9 9.5 1.3 2.7-.5 8.3-3.3 8.6-3.5v11.6c0 .7-.2 1-.8 1.2-6.3 3-12.9 4.3-19.9 3.9-5.9-.4-11.3-2.1-15.7-6.5-2.2-2.3-3.9-4.8-3.9-8.2s0-31.9 0-32.5z"/></g></svg>