<svg id="Layer_1" enable-background="new 0 0 100 100" height="512" viewBox="0 0 100 100" width="512" xmlns="http://www.w3.org/2000/svg"><path d="m33.333 16.667c-5.521 0-10 4.476-10 10 0 5.521 4.479 10 10 10s10-4.479 10-10c0-5.524-4.479-10-10-10z"/><path d="m23.333 43.334-13.333 13.333 4.714 4.713 8.619-8.619v30.572h6.667v-13.333h6.667v13.333h6.666v-39.999z"/><path d="m90 56.667-13.333-13.333h-20l-6.667 29.999h6.667v10h6.666v-10h6.667v10h6.667v-10h6.666l-3.975-17.877 5.928 5.924z"/><path d="m66.667 16.667c-5.521 0-10 4.476-10 10 0 5.521 4.479 10 10 10s10-4.479 10-10c0-5.524-4.479-10-10-10z"/></svg>