<?xml version="1.0"?>
<svg xmlns="http://www.w3.org/2000/svg" viewBox="0 0 64 64" width="512" height="512"><g id="_21-bedroom" data-name="21-bedroom"><path d="M57,38.263V23a1,1,0,0,0-1-1H8a1,1,0,0,0-1,1V38.263a9.144,9.144,0,0,0-7,8.874V59a1,1,0,0,0,1,1H3v3a1,1,0,0,0,1,1H60a1,1,0,0,0,1-1V60h2a1,1,0,0,0,1-1V47.137A9.144,9.144,0,0,0,57,38.263ZM9,38V24H55V38H53V35.778A3.783,3.783,0,0,0,49.222,32H37.778A3.783,3.783,0,0,0,34,35.778V38H30V35.778A3.783,3.783,0,0,0,26.222,32H14.778A3.783,3.783,0,0,0,11,35.778V38H9Zm42,0H36V35.778A1.781,1.781,0,0,1,37.778,34H49.222A1.781,1.781,0,0,1,51,35.778ZM28,38H13V35.778A1.781,1.781,0,0,1,14.778,34H26.222A1.781,1.781,0,0,1,28,35.778ZM2,47.137A7.144,7.144,0,0,1,9.136,40H54.864A7.144,7.144,0,0,1,62,47.137V55H2ZM59,62H5V60H59Zm3-4H2V57H62Z"/><path d="M4.432,12.81,3.46,18.476a1,1,0,0,0,1.452,1.053L10,16.854l5.088,2.675a1,1,0,0,0,1.452-1.053l-.972-5.666L19.685,8.8a1,1,0,0,0-.555-1.7l-5.689-.827L10.9,1.108a1.041,1.041,0,0,0-1.794,0L6.559,6.264.87,7.091A1,1,0,0,0,.315,8.8ZM7.367,8.167A1,1,0,0,0,8.12,7.62L10,3.811,11.88,7.62a1,1,0,0,0,.753.547l4.2.611L13.8,11.744a1,1,0,0,0-.288.885l.719,4.187L10.465,14.84a1,1,0,0,0-.93,0L5.774,16.816l.719-4.187a1,1,0,0,0-.288-.885L3.163,8.778Z"/><path d="M48.432,12.81l-.972,5.666a1,1,0,0,0,1.452,1.053L54,16.854l5.088,2.675a1,1,0,0,0,1.452-1.053l-.972-5.666L63.685,8.8a1,1,0,0,0-.555-1.7l-5.689-.827L54.9,1.108a1.041,1.041,0,0,0-1.794,0L50.559,6.264l-5.689.827a1,1,0,0,0-.555,1.7Zm2.935-4.643a1,1,0,0,0,.753-.547L54,3.811,55.88,7.62a1,1,0,0,0,.753.547l4.2.611L57.8,11.744a1,1,0,0,0-.288.885l.719,4.187L54.465,14.84a1,1,0,0,0-.93,0l-3.761,1.976.719-4.187a1,1,0,0,0-.288-.885L47.163,8.778Z"/><path d="M26.432,12.81l-.972,5.666a1,1,0,0,0,1.452,1.053L32,16.854l5.088,2.675a1,1,0,0,0,1.452-1.053l-.972-5.666L41.685,8.8a1,1,0,0,0-.555-1.7l-5.689-.827L32.9,1.108a1.041,1.041,0,0,0-1.794,0L28.559,6.264l-5.689.827a1,1,0,0,0-.555,1.7Zm2.935-4.643a1,1,0,0,0,.753-.547L32,3.811,33.88,7.62a1,1,0,0,0,.753.547l4.2.611L35.8,11.744a1,1,0,0,0-.288.885l.719,4.187L32.465,14.84a1,1,0,0,0-.93,0l-3.761,1.976.719-4.187a1,1,0,0,0-.288-.885L25.163,8.778Z"/></g></svg>
