<svg id="Capa_1" enable-background="new 0 0 512 512" height="512" viewBox="0 0 512 512" width="512" xmlns="http://www.w3.org/2000/svg"><g><g><path d="m364.499 108.535c0-16.737-3.71-32.789-11.025-47.708-1.823-3.72-6.315-5.255-10.036-3.432-3.72 1.824-5.256 6.317-3.432 10.036 6.299 12.847 9.494 26.676 9.494 41.105 0 51.559-41.951 93.505-93.514 93.505s-93.514-41.947-93.514-93.505c0-51.563 41.951-93.514 93.514-93.514 24.385 0 47.467 9.333 64.992 26.28 2.979 2.879 7.725 2.799 10.605-.178 2.879-2.978 2.8-7.726-.178-10.605-20.339-19.666-47.123-30.496-75.42-30.496-59.835 0-108.513 48.679-108.513 108.513 0 59.83 48.679 108.505 108.513 108.505s108.514-48.676 108.514-108.506z"/><path d="m187.88 114.498c0 37.554 30.552 68.106 68.106 68.106s68.106-30.552 68.106-68.106c0-4.142-3.357-7.5-7.5-7.5h-121.212c-4.143 0-7.5 3.357-7.5 7.5zm120.684 7.499c-3.654 25.745-25.84 45.607-52.578 45.607s-48.924-19.862-52.578-45.607z"/><path d="m229.815 79.912v-16.835c0-4.142-3.357-7.5-7.5-7.5s-7.5 3.357-7.5 7.5v16.835c0 4.142 3.357 7.5 7.5 7.5s7.5-3.358 7.5-7.5z"/><path d="m297.155 79.912v-16.835c0-4.142-3.357-7.5-7.5-7.5s-7.5 3.357-7.5 7.5v16.835c0 4.142 3.357 7.5 7.5 7.5s7.5-3.358 7.5-7.5z"/><path d="m502.105 239.57c-11.857-25.426-32.905-44.713-59.268-54.308-54.422-19.806-114.812 8.352-134.619 62.774l-13.405 36.829c-9.712 2.68-18.035 9.847-21.735 20.013-6.07 16.681 2.56 35.189 19.239 41.26l6.874 2.502-2.924 8.036c-7.228 19.853-6.291 41.334 2.641 60.484 8.931 19.148 24.784 33.675 44.639 40.904 8.739 3.18 17.838 4.793 27.043 4.793 9.923 0 19.645-1.848 28.897-5.492 3.853-1.518 5.747-5.874 4.229-9.727s-5.872-5.749-9.727-4.229c-7.493 2.952-15.365 4.449-23.399 4.449-7.451 0-14.824-1.309-21.914-3.888-16.09-5.858-28.938-17.631-36.175-33.149-7.238-15.519-7.999-32.925-2.141-49.014l18.181-49.953c6.209 4.958 13.224 7.628 20.269 8.742-.164.447-.287.914-.364 1.398-.569 3.551 1.462 7.004 4.84 8.234 43.037 15.663 76.91 3.608 91.995-3.992l7.03 20.426-21.475 58.997c-2.633 7.252-6.489 13.878-11.461 19.696-2.691 3.149-2.32 7.882.828 10.574 1.413 1.208 3.145 1.799 4.869 1.799 2.117 0 4.221-.892 5.705-2.627 6.146-7.191 10.91-15.374 14.156-24.317l2.925-8.034 6.874 2.502c3.623 1.318 7.33 1.943 10.978 1.943 13.154 0 25.53-8.126 30.282-21.182 3.7-10.167 1.93-21.008-3.786-29.303l13.404-36.828c9.595-26.364 8.35-54.886-3.505-80.312zm-214.934 70.437c2.538-6.974 9.147-11.313 16.172-11.313 1.948 0 3.929.334 5.863 1.038l6.875 2.502-11.76 32.31-6.875-2.502c-8.908-3.242-13.517-13.127-10.275-22.035zm194.727 70.875c-3.242 8.908-13.129 13.517-22.035 10.275l-6.875-2.502 11.76-32.31 6.875 2.502c8.908 3.242 13.517 13.127 10.275 22.035zm9.617-66.131-11.44 31.432c-1.069-.531-2.174-1.013-3.322-1.43l-10.56-3.844-9.69-28.158c-.768-2.229-2.548-3.961-4.791-4.687-2.242-.725-4.707-.349-6.634 1.007-.092.064-9.304 6.464-24.575 10.483-13.125 3.455-26.496 4.194-39.966 2.224 3.089-2.656 5.735-6.104 7.364-10.579 1.035-2.844.25-6.025-1.975-8.076-2.224-2.051-5.473-2.558-8.223-1.295-1.254.575-30.883 13.859-45.79-8.266-.888-1.303-2.175-2.31-3.654-2.856l-13.921-5.067c-1.148-.418-2.305-.759-3.466-1.04l11.441-31.432c16.979-46.65 68.747-70.789 115.394-53.809 22.598 8.225 40.641 24.757 50.805 46.553 10.162 21.793 11.228 46.242 3.003 68.84z"/><path d="m405.647 393.758-68.341-24.874c-3.898-1.414-8.196.591-9.613 4.482-4.008 11.01-3.488 22.921 1.464 33.54s13.742 18.673 24.752 22.68c4.896 1.782 9.969 2.668 15.028 2.668 6.318 0 12.615-1.383 18.512-4.133 10.619-4.952 18.673-13.742 22.68-24.752.68-1.869.59-3.932-.251-5.735-.84-1.801-2.362-3.195-4.231-3.876zm-24.538 20.771c-6.988 3.258-14.825 3.601-22.07.964-7.246-2.637-13.03-7.937-16.288-14.925-2.173-4.66-3.049-9.7-2.609-14.689l52.408 19.074c-2.87 4.105-6.78 7.402-11.441 9.576z"/><path d="m217.163 334.006-13.406-36.826c-19.813-54.42-80.201-82.583-134.624-62.779-13.696 4.982-25.947 12.557-36.413 22.511-3.001 2.855-3.12 7.602-.266 10.603 2.855 3.001 7.603 3.119 10.603.266 8.961-8.524 19.46-15.012 31.204-19.285 46.648-16.976 98.418 7.166 115.401 53.814l11.441 31.427c-1.161.281-2.319.622-3.468 1.04l-11.118 4.047-44.034-19.031c-2.941-1.27-6.369-.533-8.525 1.84l-43.719 48.097-1.06-6.451c-.461-2.804-2.466-5.105-5.179-5.947-2.715-.839-5.67-.076-7.634 1.975l-28.864 30.114-12.283 4.471c-1.147.417-2.251.899-3.32 1.429l-11.442-31.436c-3.621-9.943-5.457-20.3-5.457-30.782 0-13.507 3.129-27.094 9.047-39.294 1.808-3.726.252-8.212-3.474-10.021-3.728-1.809-8.212-.251-10.021 3.474-6.904 14.228-10.552 30.08-10.552 45.841 0 12.24 2.141 24.323 6.362 35.914l13.405 36.83c-5.718 8.295-7.488 19.138-3.788 29.306 4.753 13.058 17.128 21.182 30.282 21.182 3.647 0 7.356-.626 10.978-1.943l6.873-2.502 2.924 8.035c11.68 32.089 42.089 52.054 74.414 52.054 8.963 0 18.078-1.536 26.977-4.775 40.988-14.919 62.197-60.402 47.279-101.39l-2.925-8.034 6.875-2.502c16.679-6.071 25.309-24.58 19.239-41.26-3.7-10.167-12.022-17.333-21.732-20.012zm-165.055 106.291c-8.906 3.242-18.793-1.366-22.035-10.275-3.242-8.908 1.367-18.793 10.275-22.035l6.875-2.502 11.76 32.31zm147.362 19.664c-7.236 15.52-20.083 27.291-36.174 33.148-33.216 12.092-70.075-5.097-82.165-38.313l-5.487-15.077c-.001-.002-.001-.004-.002-.006l-15.294-42.02 16.464-17.176 1.143 6.954c.467 2.839 2.515 5.16 5.274 5.975 2.76.814 5.74-.019 7.675-2.147l50.546-55.61 38.885 16.807 15.784 43.368 5.49 15.082c5.858 16.088 5.098 33.496-2.139 49.015zm15.055-78.779-6.875 2.502-11.76-32.31 6.875-2.502c8.906-3.24 18.793 1.367 22.035 10.275s-1.367 18.793-10.275 22.035z"/><path d="m180.241 418.333c-1.806-.843-3.868-.931-5.735-.251l-68.342 24.875c-1.869.681-3.391 2.075-4.232 3.878-.84 1.804-.93 3.866-.25 5.735 6.477 17.794 23.339 28.864 41.262 28.864 4.969 0 10.025-.853 14.959-2.648 11.009-4.008 19.8-12.062 24.751-22.68 4.952-10.619 5.471-22.53 1.465-33.54-.681-1.871-2.076-3.393-3.878-4.233zm-11.18 31.432c-3.259 6.988-9.043 12.288-16.288 14.925-7.244 2.637-15.082 2.296-22.07-.963-4.661-2.174-8.572-5.47-11.442-9.576l52.408-19.075c.44 4.989-.435 10.029-2.608 14.689z"/><path d="m428.906 132.115c1.919 0 3.839-.732 5.303-2.196l14.285-14.285c2.929-2.93 2.929-7.677 0-10.607-2.93-2.928-7.677-2.928-10.607 0l-14.285 14.285c-2.929 2.93-2.929 7.677 0 10.607 1.465 1.464 3.385 2.196 5.304 2.196z"/><path d="m436.507 151.043c0 4.142 3.357 7.5 7.5 7.5h20.203c4.142 0 7.5-3.357 7.5-7.5s-3.357-7.5-7.5-7.5h-20.203c-4.143 0-7.5 3.357-7.5 7.5z"/><path d="m402.478 117.014c4.142 0 7.5-3.357 7.5-7.5v-20.202c0-4.142-3.357-7.5-7.5-7.5-4.142 0-7.5 3.357-7.5 7.5v20.203c.001 4.142 3.358 7.499 7.5 7.499z"/><path d="m55.596 206.244c.957 3.273 3.949 5.398 7.196 5.398.696 0 1.404-.098 2.106-.303 3.975-1.162 6.256-5.327 5.095-9.302l-5.666-19.391c-1.162-3.975-5.327-6.256-9.302-5.095-3.975 1.162-6.256 5.327-5.095 9.302z"/><path d="m15.533 216.933 17.718 9.706c1.143.627 2.379.924 3.596.924 2.651 0 5.22-1.408 6.584-3.897 1.99-3.633.659-8.191-2.973-10.18l-17.718-9.706c-3.633-1.99-8.191-.658-10.18 2.973-1.99 3.633-.659 8.191 2.973 10.18z"/><path d="m89.625 210.171c1.143.626 2.379.923 3.596.923 2.651 0 5.22-1.408 6.585-3.897l9.706-17.718c1.989-3.633.658-8.191-2.974-10.181-3.633-1.988-8.19-.658-10.181 2.974l-9.707 17.718c-1.989 3.633-.658 8.191 2.975 10.181z"/></g></g></svg>