<svg id="Capa_1" enable-background="new 0 0 512 512" height="512" viewBox="0 0 512 512" width="512" xmlns="http://www.w3.org/2000/svg"><g><path d="m499.529 470.659-16.241 14.377c-16.244 14.378-40.742 14.379-56.985-.001l-16.236-14.375c-2.839-2.513-7.105-2.513-9.943 0l-16.236 14.374c-16.243 14.381-40.742 14.381-56.987 0l-16.234-14.373c-2.838-2.514-7.105-2.514-9.943 0l-16.233 14.372c-16.244 14.381-40.743 14.382-56.987 0l-16.235-14.373c-2.839-2.513-7.105-2.512-9.943 0l-16.234 14.373c-16.243 14.381-40.742 14.382-56.987 0l-16.235-14.373c-2.839-2.513-7.105-2.512-9.943 0l-16.233 14.372c-16.244 14.382-40.744 14.381-56.988 0l-16.234-14.372c-3.102-2.746-7.842-2.458-10.587.644-2.746 3.101-2.458 7.841.644 10.587l16.231 14.371c21.912 19.4 54.961 19.401 76.875.001l11.262-9.97 11.263 9.972c21.913 19.4 54.961 19.398 76.873 0l11.262-9.971 11.263 9.972c21.913 19.399 54.962 19.399 76.874-.001l11.262-9.97 11.262 9.971c21.913 19.402 54.962 19.4 76.873.001l11.265-9.972 11.265 9.974c10.957 9.7 24.695 14.55 38.436 14.549 13.738 0 27.479-4.85 38.435-14.547l16.241-14.377c3.102-2.746 3.39-7.485.645-10.587-2.746-3.105-7.486-3.393-10.587-.648z"/><path d="m499.529 405.541-16.241 14.377c-16.244 14.379-40.743 14.378-56.985-.002l-16.236-14.374c-2.839-2.514-7.105-2.512-9.943 0l-16.236 14.374c-10.796 9.557-25.236 12.754-38.477 9.608v-186.009h159.089c4.142 0 7.5-3.358 7.5-7.5s-3.358-7.5-7.5-7.5h-159.09v-116.977c0-25.006 20.348-45.35 45.36-45.35 19.999 0 37.896 13.41 43.523 32.609 1.165 3.975 5.333 6.256 9.307 5.088 3.975-1.165 6.253-5.332 5.088-9.307-7.488-25.548-31.304-43.391-57.917-43.391-33.283 0-60.36 27.073-60.36 60.35v311.163c-1.205-.861-2.38-1.786-3.51-2.787l-16.234-14.373c-2.838-2.514-7.105-2.514-9.943 0l-5.312 4.703v-298.705c0-52.576 42.778-95.35 95.36-95.35 52.576 0 95.35 42.773 95.35 95.35v33.74c0 9.649-7.851 17.5-17.5 17.5s-17.5-7.851-17.5-17.5v-18.74c0-4.142-3.358-7.5-7.5-7.5s-7.5 3.358-7.5 7.5v18.74c0 17.92 14.58 32.5 32.5 32.5s32.5-14.58 32.5-32.5v-33.74c0-60.847-49.503-110.35-110.35-110.35-60.852 0-110.36 49.502-110.36 110.35v93.567h-176.012v-93.569c0-25.006 20.344-45.35 45.35-45.35 25.012 0 45.36 20.344 45.36 45.35v33.74c0 17.92 14.58 32.5 32.5 32.5s32.5-14.58 32.5-32.5v-33.74c0-60.847-49.507-110.35-110.36-110.35-60.847 0-110.35 49.503-110.35 110.35v116.98h-31.9c-4.142 0-7.5 3.358-7.5 7.5s3.358 7.5 7.5 7.5h31.9v183.33c-3.81-1.73-7.423-4.034-10.697-6.933l-16.231-14.371c-3.102-2.746-7.842-2.458-10.587.644-2.746 3.101-2.458 7.841.644 10.587l16.231 14.371c7.647 6.77 16.652 11.17 26.065 13.215.388.112.788.194 1.2.242 17.221 3.363 35.669-1.114 49.611-13.457l11.262-9.97 11.263 9.972c21.913 19.399 54.961 19.399 76.873-.001l11.262-9.971 11.263 9.972c21.298 18.854 53.111 19.378 74.999 1.582.106-.083.208-.171.309-.261.526-.434 1.052-.868 1.566-1.323l11.262-9.97 11.262 9.971c5.414 4.793 11.509 8.397 17.946 10.822.3.132.611.242.93.334 19.406 6.933 41.758 3.222 57.996-11.154l11.265-9.972 11.265 9.973c10.957 9.701 24.696 14.551 38.437 14.55 13.738 0 27.479-4.85 38.434-14.547l16.241-14.377c3.102-2.746 3.39-7.485.645-10.587-2.746-3.103-7.486-3.392-10.587-.646zm-407.599-44.743c-3.64 0-7.058-1.415-9.627-3.983-2.569-2.569-3.983-5.988-3.983-9.626 0-7.51 6.105-13.62 13.61-13.62h29.83c4.142 0 7.5-3.358 7.5-7.5s-3.358-7.5-7.5-7.5h-17.36v-56.233h176.01v56.233h-128.65c-4.142 0-7.5 3.358-7.5 7.5s3.358 7.5 7.5 7.5h128.65v27.23h-188.48zm188.48-113.463h-188.479c-7.507 0-13.615-6.108-13.615-13.615s6.108-13.615 13.615-13.615h188.479zm-226.01 183.263v-319.063c0-52.576 42.774-95.35 95.35-95.35 52.581 0 95.36 42.774 95.36 95.35v33.74c0 9.649-7.851 17.5-17.5 17.5s-17.5-7.851-17.5-17.5v-33.74c0-33.277-27.077-60.35-60.36-60.35-33.277 0-60.35 27.073-60.35 60.35v93.687c-14.596 1.286-26.084 13.572-26.084 28.497s11.488 27.211 26.084 28.497v56.469c-14.594 1.286-26.08 13.574-26.08 28.502 0 7.646 2.975 14.831 8.376 20.232 4.801 4.802 11.013 7.68 17.704 8.262v40.947l-3.708 3.283c-8.867 7.851-20.192 11.406-31.292 10.687zm173.102-10.684-16.235-14.373c-2.839-2.513-7.105-2.512-9.943 0l-16.234 14.373c-16.244 14.381-40.742 14.382-56.987 0l-16.235-14.373c-2.095-1.854-4.966-2.335-7.468-1.453v-28.29h176.01v47.298c-16.06 11.095-37.971 10.042-52.908-3.182z"/></g></svg>