<svg clip-rule="evenodd" fill-rule="evenodd" height="512" image-rendering="optimizeQuality" shape-rendering="geometricPrecision" text-rendering="geometricPrecision" viewBox="0 0 43.3492 43.3492" width="512" xmlns="http://www.w3.org/2000/svg"><g id="Layer_x0020_1"><g id="_211467592"><path id="_211468216" d="m33.9002 35.105c3.3881 1.3728 6.1395.6358 8.3868-2.2473-3.3881-1.3737-6.1399-.6358-8.3868 2.2473zm9.4491-2.4083v-.0259c-.001-.0315-.0056-.0631-.014-.0942-.0319-.1202-.1164-.2189-.2292-.2707-4.127-1.878-7.5555-.9594-10.1915 2.7308-.0718.1012-.095.2291-.0631.3486.0328.1202.1168.2197.2292.2707 1.3883.6315 2.6972.9472 3.9238.9472 2.4201 0 4.5188-1.2284 6.2677-3.678.0481-.0678.0745-.1472.0771-.2285z"/><path id="_211467976" d="m26.6477 36.8099c-5.4511 0-10.5756-2.1218-14.43-5.9763-3.8536-3.8545-5.9763-8.9787-5.9763-14.4291.0001-6.2808 2.8285-12.1187 7.7608-16.0173.1801-.1428.4412-.1116.5839.0683.1419.1791.1115.4403-.0684.583-4.7324 3.7402-7.446 9.3412-7.446 15.366.0001 10.7935 8.7816 19.575 19.576 19.575 2.2179 0 4.3942-.3676 6.4676-1.0933.2173-.0762.4532.038.5294.2543.0764.217-.038.4532-.2543.5293-2.1624.7569-4.4314 1.1401-6.7427 1.1401z"/><path id="_211468384" d="m28.8676 36.9024c-.1032 1.2145-.0358 4.3805 3.3161 5.2394.6585-3.3969-2.1738-4.8137-3.3161-5.2394zm3.6293 6.1493c-.0249 0-.0511-.0025-.0771-.0077-1.5289-.289-2.6867-.9956-3.4384-2.1011-1.3594-1.9982-.8901-4.5603-.8693-4.6684.0217-.1125.0882-.2119.1851-.2733.0978-.0615.2154-.0796.3269-.0511.1069.0277 2.6237.6998 3.8468 2.7845.6776 1.153.8208 2.5007.4273 4.0067-.0482.185-.2154.3105-.4013.3104z"/><path id="_211468360" d="m30.915 29.8864c-1.0288.5069-1.7407 1.2284-2.1196 2.1487-.5724 1.3952-.2603 2.9211-.0423 3.6607 1.0311-.6549 3.505-2.6244 2.1619-5.8094zm-2.392 6.8361c-.049 0-.0986-.0086-.1453-.0267-.1073-.0399-.1938-.1229-.2379-.2284-.0422-.1013-1.0311-2.512-.1125-4.7472.509-1.2369 1.4948-2.1677 2.9315-2.7654.2026-.0839.4334.0026.5311.1981.6956 1.3918.8331 2.7404.4083 4.0084-.7671 2.2914-3.0924 3.4687-3.191 3.5171-.0577.0294-.1211.0442-.1842.0441z"/><path id="_211468336" d="m18.3196 35.2693c-.6979 1.0026-2.2172 3.7749.2533 6.1926.7526-.865 1.1296-1.8061 1.1228-2.8017-.011-1.5078-.8902-2.794-1.3761-3.3909zm.2775 7.1925c-.0957 0-.1929-.0337-.2708-.1003-1.1795-1.0147-1.8286-2.2058-1.9272-3.5387-.1787-2.4108 1.5094-4.3951 1.5812-4.4781.0754-.0866.1825-.1393.2976-.1436.1168-.0044.2258.0389.3079.1185.0791.0778 1.922 1.9186 1.9402 4.3345.0096 1.3372-.5397 2.5769-1.634 3.6841-.0804.0821-.1877.1237-.2949.1236z"/><path id="_211468072" d="m23.2378 30.2013c-3.1638 0-4.1468 2.8182-4.4158 3.9626 1.2181-.0502 4.3501-.5164 4.7791-3.9505-.1235-.0078-.2457-.0121-.3633-.0121zm-4.9174 4.3769h.0007zm.2215.4204c-.1417 0-.2294-.0052-.2476-.006-.1148-.007-.2214-.0615-.2941-.1497-.0734-.0883-.1064-.2033-.0917-.3174.014-.1091.3633-2.6911 2.2767-4.1676 1.0581-.8166 2.3779-1.1289 3.9211-.9282.2163.0276.3737.2189.3607.436-.0934 1.5534-.6496 2.7905-1.6513 3.6762-1.5074 1.3338-3.5656 1.4567-4.2738 1.4567z"/><path id="_211467712" d="m10.006 28.5759c-1.1036.5182-3.8122 2.1591-2.8797 5.4919 3.2716-1.1279 3.081-4.2895 2.8797-5.4919zm-3.151 6.4252c-.1732 0-.3325-.108-.3922-.2776-.5144-1.4687-.4809-2.8242.1003-4.0292 1.0501-2.1763 3.5042-3.0508 3.6079-3.0863.1094-.0381.2276-.0294.3296.0242.1021.0536.1765.1462.2076.2569.0295.1064.7059 2.6219-.4869 4.7238-.6606 1.1626-1.756 1.961-3.2568 2.3736-.0371.0095-.0735.0147-.1099.0147z"/><path id="_211467472" d="m10.3485 27.9799h.0008zm.6419-.1081c1.0805.5657 4.0256 1.7275 6.1145-1.031-2.8775-1.9222-5.2799.1427-6.1145 1.031zm2.7645 1.5579c-1.9479 0-3.557-1.0518-3.6357-1.1037-.0957-.0641-.1609-.1644-.1799-.2768-.0189-.1134.0094-.2293.0786-.321.0667-.0873 1.6609-2.1486 4.056-2.4704 1.3255-.1791 2.6236.2102 3.8597 1.1556.1739.1323.2145.3772.0943.5589-.8577 1.2983-1.9575 2.0915-3.2671 2.358-.3415.0691-.679.0994-1.0059.0994z"/><path id="_211467400" d="m.9095 21.9405c3.3978.6591 4.8137-2.1738 5.2401-3.3156-1.2144-.1047-4.3812-.0363-5.2401 3.3156zm.9922.9307c-.5087 0-1.039-.0717-1.5917-.2162-.2109-.0546-.3434-.2638-.3027-.4784.2892-1.5293.9956-2.6866 2.101-3.4383 1.9986-1.3599 4.5603-.8901 4.6685-.8694.1136.0216.2119.0883.2734.186.0617.0969.0795.2145.051.3261-.0275.1063-.6998 2.6236-2.7836 3.8467-.7308.429-1.5389.6436-2.4159.6435z"/><path id="_211467640" d="m6.7448 18.2797h.0012zm.6092.2267c.6532 1.0302 2.6225 3.5094 5.8108 2.1651-1.5318-3.1036-4.6433-2.5171-5.8108-2.1651zm4.0073 3.39c-.5006 0-.9913-.0805-1.4714-.2413-2.2911-.7674-3.4686-3.0924-3.5171-3.1911-.0507-.102-.0579-.2214-.0173-.3295.0402-.1073.1229-.1938.2284-.2379.1021-.0424 2.5128-1.0302 4.748-.1124 1.2373.5085 2.1668 1.4947 2.7646 2.9315.0842.2014-.0027.4333-.1973.5311-.8656.4324-1.7144.6496-2.5379.6496z"/><path id="_211467232" d="m1.5896 8.3304c.8657.7518 1.8025 1.1281 2.8015 1.122 1.5079-.0113 2.794-.8901 3.3917-1.3762-1.0022-.6981-3.7757-2.217-6.1932.2542zm2.7722 1.9524c-1.3235 0-2.551-.5493-3.6487-1.634-.1547-.1531-.1652-.4005-.0234-.5657 1.0147-1.1798 2.2058-1.8286 3.5396-1.9272 2.4092-.1783 4.3943 1.5094 4.4773 1.5812.0876.0753.1393.1825.1436.2976.0043.115-.038.2257-.1185.3079-.0776.0786-1.9177 1.9221-4.3346 1.9402-.0119 0-.0233 0-.0353 0z"/><path id="_211467328" d="m8.8877 8.5787c.0502 1.218.5162 4.3502 3.9502 4.7801.2249-3.4531-2.7637-4.5015-3.9502-4.7801zm4.323 5.6459c-.0086 0-.0164.0001-.0251-.0008-1.5534-.0935-2.7904-.6488-3.6763-1.6513-1.6003-1.8105-1.4576-4.4115-1.4506-4.5214.0073-.1151.0614-.2214.1497-.2941.0891-.0736.2032-.1064.3175-.0917.1091.0139 2.691.3633 4.1675 2.2767.8166 1.0587 1.1297 2.3779.929 3.9211-.0275.2076-.2041.3616-.4117.3615z"/></g></g></svg>