<svg id="Capa_1" enable-background="new 0 0 512 512" height="512" viewBox="0 0 512 512" width="512" xmlns="http://www.w3.org/2000/svg"><g><path d="m210.334 46.847h-11.668c-4.143 0-7.5 3.357-7.5 7.5s3.357 7.5 7.5 7.5h11.668c4.143 0 7.5-3.357 7.5-7.5s-3.357-7.5-7.5-7.5z"/><path d="m242.931 54.347c0 4.143 3.357 7.5 7.5 7.5h11.669c4.143 0 7.5-3.357 7.5-7.5s-3.357-7.5-7.5-7.5h-11.669c-4.143 0-7.5 3.357-7.5 7.5z"/><path d="m302.195 61.847h11.669c4.143 0 7.5-3.357 7.5-7.5s-3.357-7.5-7.5-7.5h-11.669c-4.143 0-7.5 3.357-7.5 7.5s3.358 7.5 7.5 7.5z"/><path d="m210.334 84.469h-11.668c-4.143 0-7.5 3.357-7.5 7.5s3.357 7.5 7.5 7.5h11.668c4.143 0 7.5-3.357 7.5-7.5s-3.357-7.5-7.5-7.5z"/><path d="m262.1 84.469h-11.669c-4.143 0-7.5 3.357-7.5 7.5s3.357 7.5 7.5 7.5h11.669c4.143 0 7.5-3.357 7.5-7.5s-3.358-7.5-7.5-7.5z"/><path d="m302.195 99.469h11.669c4.143 0 7.5-3.357 7.5-7.5s-3.357-7.5-7.5-7.5h-11.669c-4.143 0-7.5 3.357-7.5 7.5s3.358 7.5 7.5 7.5z"/><path d="m210.334 122.092h-11.668c-4.143 0-7.5 3.357-7.5 7.5s3.357 7.5 7.5 7.5h11.668c4.143 0 7.5-3.357 7.5-7.5s-3.357-7.5-7.5-7.5z"/><path d="m262.1 122.092h-11.669c-4.143 0-7.5 3.357-7.5 7.5s3.357 7.5 7.5 7.5h11.669c4.143 0 7.5-3.357 7.5-7.5s-3.358-7.5-7.5-7.5z"/><path d="m302.195 137.092h11.669c4.143 0 7.5-3.357 7.5-7.5s-3.357-7.5-7.5-7.5h-11.669c-4.143 0-7.5 3.357-7.5 7.5s3.358 7.5 7.5 7.5z"/><path d="m210.334 159.714h-11.668c-4.143 0-7.5 3.357-7.5 7.5s3.357 7.5 7.5 7.5h11.668c4.143 0 7.5-3.357 7.5-7.5s-3.357-7.5-7.5-7.5z"/><path d="m262.1 159.714h-11.669c-4.143 0-7.5 3.357-7.5 7.5s3.357 7.5 7.5 7.5h11.669c4.143 0 7.5-3.357 7.5-7.5s-3.358-7.5-7.5-7.5z"/><path d="m302.195 174.714h11.669c4.143 0 7.5-3.357 7.5-7.5s-3.357-7.5-7.5-7.5h-11.669c-4.143 0-7.5 3.357-7.5 7.5s3.358 7.5 7.5 7.5z"/><path d="m152.454 132.96h-7.211c-4.143 0-7.5 3.357-7.5 7.5s3.357 7.5 7.5 7.5h7.211c4.143 0 7.5-3.357 7.5-7.5s-3.357-7.5-7.5-7.5z"/><path d="m152.454 172.832h-7.211c-4.143 0-7.5 3.357-7.5 7.5s3.357 7.5 7.5 7.5h7.211c4.143 0 7.5-3.357 7.5-7.5s-3.357-7.5-7.5-7.5z"/><path d="m92.454 212.704h-7.211c-4.143 0-7.5 3.357-7.5 7.5s3.357 7.5 7.5 7.5h7.211c4.143 0 7.5-3.357 7.5-7.5s-3.357-7.5-7.5-7.5z"/><path d="m360.076 147.96h7.211c4.143 0 7.5-3.357 7.5-7.5s-3.357-7.5-7.5-7.5h-7.211c-4.143 0-7.5 3.357-7.5 7.5s3.358 7.5 7.5 7.5z"/><path d="m360.076 187.832h7.211c4.143 0 7.5-3.357 7.5-7.5s-3.357-7.5-7.5-7.5h-7.211c-4.143 0-7.5 3.357-7.5 7.5s3.358 7.5 7.5 7.5z"/><path d="m420.076 227.704h7.211c4.143 0 7.5-3.357 7.5-7.5s-3.357-7.5-7.5-7.5h-7.211c-4.143 0-7.5 3.357-7.5 7.5s3.358 7.5 7.5 7.5z"/><path d="m92.454 172.832h-7.211c-4.143 0-7.5 3.357-7.5 7.5s3.357 7.5 7.5 7.5h7.211c4.143 0 7.5-3.357 7.5-7.5s-3.357-7.5-7.5-7.5z"/><path d="m420.076 187.832h7.211c4.143 0 7.5-3.357 7.5-7.5s-3.357-7.5-7.5-7.5h-7.211c-4.143 0-7.5 3.357-7.5 7.5s3.358 7.5 7.5 7.5z"/><path d="m490.812 313.457h-11.262c5.002-14.24 5.618-28.621 1.787-42.89-2.994-11.153-12.574-19.206-23.885-20.5v-90.689c0-11.135-9.06-20.194-20.194-20.194h-14.442c-2.864 0-5.195-2.33-5.195-5.194v-12.63c0-11.135-9.06-20.194-20.194-20.194h-21.432c-2.864 0-5.194-2.331-5.194-5.195v-20.521c0-41.604-33.847-75.45-75.45-75.45h-18.258c-4.143 0-7.5 3.357-7.5 7.5s3.357 7.5 7.5 7.5h18.258c33.332 0 60.45 27.118 60.45 60.45v20.521c0 11.136 9.06 20.195 20.194 20.195h21.432c2.864 0 5.194 2.33 5.194 5.194v12.629c0 11.135 9.06 20.194 20.195 20.194h14.442c2.864 0 5.194 2.33 5.194 5.194v90.485h-35.485v-13.287c0-17.38-14.14-31.52-31.52-31.52h-67.159c-17.38 0-31.52 14.14-31.52 31.52v13.287h-41.01v-13.287c0-17.38-14.14-31.52-31.52-31.52h-67.158c-17.38 0-31.52 14.14-31.52 31.52v13.287h-35.484v-90.485c0-2.864 2.33-5.194 5.194-5.194h14.443c11.135 0 20.194-9.06 20.194-20.194v-12.629c0-2.864 2.331-5.194 5.195-5.194h21.432c11.135 0 20.194-9.06 20.194-20.195v-20.521c0-33.332 27.118-60.45 60.45-60.45h29.926c4.143 0 7.5-3.357 7.5-7.5s-3.357-7.5-7.5-7.5h-29.924c-41.604 0-75.45 33.847-75.45 75.45v20.521c0 2.864-2.33 5.195-5.194 5.195h-21.432c-11.136 0-20.195 9.06-20.195 20.194v12.629c0 2.864-2.33 5.194-5.194 5.194h-14.444c-11.135 0-20.194 9.06-20.194 20.194v90.623c-11.541 1.098-21.372 9.24-24.413 20.566-3.831 14.269-3.214 28.649 1.788 42.891h-11.264c-11.537 0-20.924 9.387-20.924 20.924v64.061c0 11.537 9.387 20.923 20.924 20.923h14.534v51.439h-3.887c-9.849 0-17.86 8.012-17.86 17.86v15.836c0 4.143 3.357 7.5 7.5 7.5h80.929c4.143 0 7.5-3.357 7.5-7.5v-15.836c0-9.849-8.012-17.86-17.86-17.86h-3.886v-51.439h262.181c4.143 0 7.5-3.357 7.5-7.5s-3.357-7.5-7.5-7.5h-329.151c-3.267 0-5.924-2.657-5.924-5.923v-64.061c0-3.267 2.657-5.924 5.924-5.924h469.624c3.266 0 5.923 2.657 5.923 5.924v64.061c0 3.266-2.657 5.923-5.923 5.923h-110.487c-4.143 0-7.5 3.357-7.5 7.5s3.357 7.5 7.5 7.5h43.518v51.439h-3.887c-9.849 0-17.86 8.012-17.86 17.86v15.836c0 4.143 3.357 7.5 7.5 7.5h80.929c4.143 0 7.5-3.357 7.5-7.5v-15.836c0-9.849-8.012-17.86-17.86-17.86h-3.886v-51.439h14.534c11.537 0 20.923-9.386 20.923-20.923v-64.061c-.001-11.537-9.386-20.924-20.924-20.924zm-395.908 175.207v8.336h-65.928v-8.336c0-1.577 1.283-2.86 2.86-2.86h60.208c1.577 0 2.86 1.283 2.86 2.86zm-21.746-69.3v51.439h-22.435v-51.439zm218.612-182.788c0-9.109 7.41-16.52 16.52-16.52h67.159c9.109 0 16.52 7.41 16.52 16.52v13.287h-100.199zm-171.208 0c0-9.109 7.41-16.52 16.52-16.52h67.158c9.109 0 16.52 7.41 16.52 16.52v13.287h-100.198zm-72.012 76.881c-5.801-13.131-6.909-25.931-3.4-39.001 1.517-5.648 6.694-9.593 12.592-9.593h396.518c5.897 0 11.075 3.944 12.592 9.593 3.509 13.071 2.4 25.871-3.4 39.001zm434.474 175.207v8.336h-65.929v-8.336c0-1.577 1.283-2.86 2.86-2.86h60.208c1.578 0 2.861 1.283 2.861 2.86zm-21.746-17.86h-22.436v-51.439h22.436z"/><path d="m136.588 358.794h67.886c4.143 0 7.5-3.357 7.5-7.5s-3.357-7.5-7.5-7.5h-67.886c-12.471 0-22.616 10.146-22.616 22.617s10.146 22.616 22.616 22.616h238.825c12.471 0 22.616-10.146 22.616-22.617s-10.146-22.616-22.616-22.616h-140.953c-4.143 0-7.5 3.357-7.5 7.5s3.357 7.5 7.5 7.5h140.953c4.199 0 7.616 3.417 7.616 7.617 0 4.199-3.417 7.616-7.616 7.616h-238.825c-4.199 0-7.616-3.417-7.616-7.617 0-4.199 3.417-7.616 7.616-7.616z"/></g></svg>